<svg xmlns="http://www.w3.org/2000/svg" xmlns:xlink="http://www.w3.org/1999/xlink" width="500" zoomAndPan="magnify" viewBox="0 0 375 374.999991" height="500" preserveAspectRatio="xMidYMid meet" version="1.0"><path fill="#ffd740" d="M 187.507812 0 C 83.941406 0 0 83.96875 0 187.5 C 0 291.082031 83.941406 375 187.507812 375 C 291.050781 375 375 291.082031 375 187.5 C 375 83.96875 291.050781 0 187.507812 0 " fill-opacity="1" fill-rule="nonzero"/><path fill="#f57f17" d="M 187.507812 28.144531 C 99.488281 28.144531 28.132812 99.5 28.132812 187.5 C 28.132812 275.519531 99.488281 346.875 187.507812 346.875 C 275.507812 346.875 346.867188 275.519531 346.867188 187.5 C 346.867188 99.5 275.507812 28.144531 187.507812 28.144531 " fill-opacity="1" fill-rule="nonzero"/><path fill="#ffab00" d="M 187.507812 39.835938 C 99.488281 39.835938 28.132812 99.5 28.132812 187.5 C 28.132812 275.519531 99.488281 346.875 187.507812 346.875 C 275.507812 346.875 346.867188 275.519531 346.867188 187.5 C 346.867188 99.5 275.507812 39.835938 187.507812 39.835938 " fill-opacity="1" fill-rule="nonzero"/><path fill="#f57f17" d="M 239.203125 203.015625 C 231.777344 194.152344 217.714844 186.917969 197.160156 181.363281 C 195.929688 181.003906 181.210938 176.394531 178.488281 175.152344 C 172.910156 172.773438 168.757812 169.632812 166.007812 165.710938 C 164.566406 163.640625 163.507812 161.515625 162.808594 159.246094 C 162.800781 159.167969 162.761719 159.035156 162.742188 158.925781 C 162.625 158.625 162.535156 158.292969 162.480469 158 C 161.96875 156.175781 161.664062 154.265625 161.664062 152.289062 C 161.664062 139.324219 173.128906 128.851562 187.214844 128.851562 C 201.0625 128.851562 212.3125 138.96875 212.714844 151.609375 L 245.132812 147.375 L 245.132812 135.660156 L 235.484375 123.195312 L 235.480469 123.222656 C 233.757812 120.820312 231.851562 118.597656 229.71875 116.566406 C 221.625 108.90625 210.785156 104.21875 197.160156 102.585938 L 197.160156 84.9375 L 178.488281 84.9375 L 178.488281 102.585938 C 163.75 104.0625 151.910156 109.570312 143.027344 119.148438 C 134.160156 128.691406 129.71875 140.515625 129.71875 154.574219 C 129.71875 168.480469 133.671875 180.273438 141.492188 190.03125 C 149.359375 199.757812 161.675781 207.015625 178.488281 211.847656 C 181.179688 212.714844 195.453125 216.851562 197.160156 217.378906 C 204.859375 219.597656 210.429688 222.785156 213.8125 226.929688 C 217.195312 231.109375 218.910156 236.078125 218.910156 241.839844 C 218.910156 248.242188 216.886719 253.855469 212.847656 258.613281 C 208.804688 263.351562 203.574219 266.34375 197.160156 267.550781 C 190.019531 268.765625 182.089844 267.792969 178.488281 265.742188 C 173.871094 263.519531 169.660156 259.90625 165.875 254.949219 C 162.089844 249.953125 159.554688 244.050781 158.152344 237.160156 L 124.582031 229.085938 L 124.582031 240.792969 C 127.167969 257.695312 133.082031 270.761719 142.332031 280.035156 C 151.59375 289.28125 163.636719 294.820312 178.488281 296.617188 L 178.488281 313.496094 L 197.160156 313.496094 L 197.160156 295.984375 C 213.875 293.589844 226.921875 287.09375 236.324219 276.433594 C 245.695312 265.800781 250.398438 252.703125 250.398438 237.160156 C 250.398438 223.289062 246.679688 211.890625 239.203125 203.015625 " fill-opacity="1" fill-rule="nonzero"/><path fill="#ffd740" d="M 197.160156 169.648438 C 195.929688 169.289062 181.210938 164.667969 178.488281 163.449219 C 172.910156 161.058594 168.757812 157.917969 166.007812 153.996094 C 164.566406 151.933594 163.507812 149.796875 162.808594 147.542969 C 162.800781 147.453125 162.761719 147.324219 162.742188 147.222656 C 162.625 146.910156 162.535156 146.601562 162.480469 146.296875 C 161.96875 144.464844 161.664062 142.554688 161.664062 140.578125 C 161.664062 127.609375 173.128906 117.148438 187.214844 117.148438 C 201.0625 117.148438 212.3125 127.265625 212.714844 139.894531 L 245.132812 135.660156 C 242.902344 122.808594 237.746094 112.519531 229.71875 104.863281 C 221.625 97.199219 210.785156 92.503906 197.160156 90.882812 L 197.160156 73.222656 L 178.488281 73.222656 L 178.488281 90.882812 C 163.75 92.359375 151.910156 97.867188 143.027344 107.441406 C 134.160156 116.984375 129.71875 128.804688 129.71875 142.859375 C 129.71875 156.769531 133.671875 168.566406 141.492188 178.308594 C 149.359375 188.054688 161.675781 195.324219 178.488281 200.140625 C 181.179688 200.996094 195.453125 205.144531 197.160156 205.683594 C 204.859375 207.882812 210.429688 211.066406 213.8125 215.21875 C 217.195312 219.40625 218.910156 224.363281 218.910156 230.117188 C 218.910156 236.53125 216.886719 242.136719 212.847656 246.90625 C 208.804688 251.648438 203.574219 254.632812 197.160156 255.835938 C 190.019531 257.058594 182.089844 256.085938 178.488281 254.03125 C 173.871094 251.800781 169.660156 248.199219 165.875 243.238281 C 162.089844 238.238281 159.554688 232.347656 158.152344 225.449219 L 124.582031 229.085938 C 127.167969 245.976562 133.082031 259.054688 142.332031 268.320312 C 151.59375 277.566406 163.636719 283.113281 178.488281 284.914062 L 178.488281 301.785156 L 197.160156 301.785156 L 197.160156 284.269531 C 213.875 281.875 226.921875 275.371094 236.324219 264.722656 C 245.695312 254.09375 250.398438 240.996094 250.398438 225.449219 C 250.398438 211.578125 246.679688 200.175781 239.203125 191.300781 C 231.777344 182.441406 217.714844 175.207031 197.160156 169.648438 " fill-opacity="1" fill-rule="nonzero"/><path fill="#ffffff" d="M 129.816406 62.808594 C 97.398438 68.773438 92.566406 73.613281 86.601562 106.03125 C 80.625 73.613281 75.789062 68.773438 43.378906 62.808594 C 75.789062 56.839844 80.625 52 86.601562 19.585938 C 92.566406 52 97.398438 56.839844 129.816406 62.808594 " fill-opacity="1" fill-rule="nonzero"/></svg>